<svg data-name="Layer 1" xmlns="http://www.w3.org/2000/svg" viewBox="0 0 82.19 32"><title>logo</title><path d="M16 0a16 16 0 1 0 16 16A16 16 0 0 0 16 0zm0 26a10 10 0 1 1 10-10 10 10 0 0 1-10 10z" fill="#ffd942"/><path d="M43.41 13.28h2.36V4.71h3.27V2.53h-8.9v2.18h3.27v8.57zm16.24-2.11h-5.84V8.92h5.07v-2.1h-5.07V4.64h5.76V2.53h-8.1v10.75h8.18v-2.11zm6.58.17A4.93 4.93 0 0 1 63 10l-1.4 1.67a6.84 6.84 0 0 0 4.56 1.72c2.32 0 3.94-1.2 3.94-3.33 0-1.9-1.23-2.69-3.41-3.25-1.86-.48-2.32-.71-2.32-1.41 0-.55.48-1 1.38-1a5 5 0 0 1 2.79 1.06l1.26-1.71a6.22 6.22 0 0 0-4-1.37c-2.19 0-3.76 1.29-3.76 3.24 0 2.16 1.4 2.76 3.56 3.31 1.8.46 2.16.77 2.16 1.37s-.56 1.04-1.53 1.04zm8.84 1.94h2.36V4.71h3.27V2.53h-8.9v2.18h3.27v8.57zM45.3 18.43h-4.39v10.74h2.36V26h1.8c2.41 0 4.34-1.29 4.34-3.77 0-2.23-1.55-3.8-4.11-3.8zm-.15 5.42h-1.88v-3.29h1.83c1.18 0 1.92.57 1.92 1.63a1.67 1.67 0 0 1-1.88 1.66zm8.77-5.5l-4.6 10.82h2.41l1-2.41h4.54l1 2.41h2.43l-4.6-10.82zm-.37 6.32L55 21.19l1.43 3.48zm13.37.33h2.38v1.53a3.77 3.77 0 0 1-2.23.64 3.22 3.22 0 0 1-3.25-3.41 3.23 3.23 0 0 1 3.08-3.38 4 4 0 0 1 2.81 1.09l1.49-1.8a5.9 5.9 0 0 0-4.2-1.42 5.51 5.51 0 0 0-5.63 5.56A5.38 5.38 0 0 0 67 29.36a7 7 0 0 0 4.59-1.7V23h-4.67zm9.44 2.07v-2.25h5.06v-2.11h-5.06v-2.18h5.75v-2.1h-8.1v10.74h8.18v-2.1h-5.83z"/></svg>